<?xml version="1.0" encoding="utf-8" standalone="no"?>
<!DOCTYPE svg PUBLIC "-//W3C//DTD SVG 1.1//EN"
  "http://www.w3.org/Graphics/SVG/1.1/DTD/svg11.dtd">
<!-- Created with matplotlib (https://matplotlib.org/) -->
<svg height="252.018125pt" version="1.1" viewBox="0 0 391.5125 252.018125" width="391.5125pt" xmlns="http://www.w3.org/2000/svg" xmlns:xlink="http://www.w3.org/1999/xlink">
 <defs>
  <style type="text/css">
*{stroke-linecap:butt;stroke-linejoin:round;}
  </style>
 </defs>
 <g id="figure_1">
  <g id="patch_1">
   <path d="M 0 252.018125 
L 391.5125 252.018125 
L 391.5125 0 
L 0 0 
z
" style="fill:none;"/>
  </g>
  <g id="axes_1">
   <g id="patch_2">
    <path d="M 46.0125 228.14 
L 380.8125 228.14 
L 380.8125 10.7 
L 46.0125 10.7 
z
" style="fill:#ffffff;"/>
   </g>
   <g id="matplotlib.axis_1">
    <g id="xtick_1">
     <g id="line2d_1">
      <defs>
       <path d="M 0 0 
L 0 3.5 
" id="m0522749691" style="stroke:#000000;stroke-width:0.8;"/>
      </defs>
      <g>
       <use style="stroke:#000000;stroke-width:0.8;" x="61.230682" xlink:href="#m0522749691" y="228.14"/>
      </g>
     </g>
     <g id="text_1">
      <!-- 0 -->
      <defs>
       <path d="M 31.78125 66.40625 
Q 24.171875 66.40625 20.328125 58.90625 
Q 16.5 51.421875 16.5 36.375 
Q 16.5 21.390625 20.328125 13.890625 
Q 24.171875 6.390625 31.78125 6.390625 
Q 39.453125 6.390625 43.28125 13.890625 
Q 47.125 21.390625 47.125 36.375 
Q 47.125 51.421875 43.28125 58.90625 
Q 39.453125 66.40625 31.78125 66.40625 
z
M 31.78125 74.21875 
Q 44.046875 74.21875 50.515625 64.515625 
Q 56.984375 54.828125 56.984375 36.375 
Q 56.984375 17.96875 50.515625 8.265625 
Q 44.046875 -1.421875 31.78125 -1.421875 
Q 19.53125 -1.421875 13.0625 8.265625 
Q 6.59375 17.96875 6.59375 36.375 
Q 6.59375 54.828125 13.0625 64.515625 
Q 19.53125 74.21875 31.78125 74.21875 
z
" id="DejaVuSans-48"/>
      </defs>
      <g transform="translate(58.049432 242.738437)scale(0.1 -0.1)">
       <use xlink:href="#DejaVuSans-48"/>
      </g>
     </g>
    </g>
    <g id="xtick_2">
     <g id="line2d_2">
      <g>
       <use style="stroke:#000000;stroke-width:0.8;" x="122.225399" xlink:href="#m0522749691" y="228.14"/>
      </g>
     </g>
     <g id="text_2">
      <!-- 100 -->
      <defs>
       <path d="M 12.40625 8.296875 
L 28.515625 8.296875 
L 28.515625 63.921875 
L 10.984375 60.40625 
L 10.984375 69.390625 
L 28.421875 72.90625 
L 38.28125 72.90625 
L 38.28125 8.296875 
L 54.390625 8.296875 
L 54.390625 0 
L 12.40625 0 
z
" id="DejaVuSans-49"/>
      </defs>
      <g transform="translate(112.681649 242.738437)scale(0.1 -0.1)">
       <use xlink:href="#DejaVuSans-49"/>
       <use x="63.623047" xlink:href="#DejaVuSans-48"/>
       <use x="127.246094" xlink:href="#DejaVuSans-48"/>
      </g>
     </g>
    </g>
    <g id="xtick_3">
     <g id="line2d_3">
      <g>
       <use style="stroke:#000000;stroke-width:0.8;" x="183.220115" xlink:href="#m0522749691" y="228.14"/>
      </g>
     </g>
     <g id="text_3">
      <!-- 200 -->
      <defs>
       <path d="M 19.1875 8.296875 
L 53.609375 8.296875 
L 53.609375 0 
L 7.328125 0 
L 7.328125 8.296875 
Q 12.9375 14.109375 22.625 23.890625 
Q 32.328125 33.6875 34.8125 36.53125 
Q 39.546875 41.84375 41.421875 45.53125 
Q 43.3125 49.21875 43.3125 52.78125 
Q 43.3125 58.59375 39.234375 62.25 
Q 35.15625 65.921875 28.609375 65.921875 
Q 23.96875 65.921875 18.8125 64.3125 
Q 13.671875 62.703125 7.8125 59.421875 
L 7.8125 69.390625 
Q 13.765625 71.78125 18.9375 73 
Q 24.125 74.21875 28.421875 74.21875 
Q 39.75 74.21875 46.484375 68.546875 
Q 53.21875 62.890625 53.21875 53.421875 
Q 53.21875 48.921875 51.53125 44.890625 
Q 49.859375 40.875 45.40625 35.40625 
Q 44.1875 33.984375 37.640625 27.21875 
Q 31.109375 20.453125 19.1875 8.296875 
z
" id="DejaVuSans-50"/>
      </defs>
      <g transform="translate(173.676365 242.738437)scale(0.1 -0.1)">
       <use xlink:href="#DejaVuSans-50"/>
       <use x="63.623047" xlink:href="#DejaVuSans-48"/>
       <use x="127.246094" xlink:href="#DejaVuSans-48"/>
      </g>
     </g>
    </g>
    <g id="xtick_4">
     <g id="line2d_4">
      <g>
       <use style="stroke:#000000;stroke-width:0.8;" x="244.214832" xlink:href="#m0522749691" y="228.14"/>
      </g>
     </g>
     <g id="text_4">
      <!-- 300 -->
      <defs>
       <path d="M 40.578125 39.3125 
Q 47.65625 37.796875 51.625 33 
Q 55.609375 28.21875 55.609375 21.1875 
Q 55.609375 10.40625 48.1875 4.484375 
Q 40.765625 -1.421875 27.09375 -1.421875 
Q 22.515625 -1.421875 17.65625 -0.515625 
Q 12.796875 0.390625 7.625 2.203125 
L 7.625 11.71875 
Q 11.71875 9.328125 16.59375 8.109375 
Q 21.484375 6.890625 26.8125 6.890625 
Q 36.078125 6.890625 40.9375 10.546875 
Q 45.796875 14.203125 45.796875 21.1875 
Q 45.796875 27.640625 41.28125 31.265625 
Q 36.765625 34.90625 28.71875 34.90625 
L 20.21875 34.90625 
L 20.21875 43.015625 
L 29.109375 43.015625 
Q 36.375 43.015625 40.234375 45.921875 
Q 44.09375 48.828125 44.09375 54.296875 
Q 44.09375 59.90625 40.109375 62.90625 
Q 36.140625 65.921875 28.71875 65.921875 
Q 24.65625 65.921875 20.015625 65.03125 
Q 15.375 64.15625 9.8125 62.3125 
L 9.8125 71.09375 
Q 15.4375 72.65625 20.34375 73.4375 
Q 25.25 74.21875 29.59375 74.21875 
Q 40.828125 74.21875 47.359375 69.109375 
Q 53.90625 64.015625 53.90625 55.328125 
Q 53.90625 49.265625 50.4375 45.09375 
Q 46.96875 40.921875 40.578125 39.3125 
z
" id="DejaVuSans-51"/>
      </defs>
      <g transform="translate(234.671082 242.738437)scale(0.1 -0.1)">
       <use xlink:href="#DejaVuSans-51"/>
       <use x="63.623047" xlink:href="#DejaVuSans-48"/>
       <use x="127.246094" xlink:href="#DejaVuSans-48"/>
      </g>
     </g>
    </g>
    <g id="xtick_5">
     <g id="line2d_5">
      <g>
       <use style="stroke:#000000;stroke-width:0.8;" x="305.209549" xlink:href="#m0522749691" y="228.14"/>
      </g>
     </g>
     <g id="text_5">
      <!-- 400 -->
      <defs>
       <path d="M 37.796875 64.3125 
L 12.890625 25.390625 
L 37.796875 25.390625 
z
M 35.203125 72.90625 
L 47.609375 72.90625 
L 47.609375 25.390625 
L 58.015625 25.390625 
L 58.015625 17.1875 
L 47.609375 17.1875 
L 47.609375 0 
L 37.796875 0 
L 37.796875 17.1875 
L 4.890625 17.1875 
L 4.890625 26.703125 
z
" id="DejaVuSans-52"/>
      </defs>
      <g transform="translate(295.665799 242.738437)scale(0.1 -0.1)">
       <use xlink:href="#DejaVuSans-52"/>
       <use x="63.623047" xlink:href="#DejaVuSans-48"/>
       <use x="127.246094" xlink:href="#DejaVuSans-48"/>
      </g>
     </g>
    </g>
    <g id="xtick_6">
     <g id="line2d_6">
      <g>
       <use style="stroke:#000000;stroke-width:0.8;" x="366.204265" xlink:href="#m0522749691" y="228.14"/>
      </g>
     </g>
     <g id="text_6">
      <!-- 500 -->
      <defs>
       <path d="M 10.796875 72.90625 
L 49.515625 72.90625 
L 49.515625 64.59375 
L 19.828125 64.59375 
L 19.828125 46.734375 
Q 21.96875 47.46875 24.109375 47.828125 
Q 26.265625 48.1875 28.421875 48.1875 
Q 40.625 48.1875 47.75 41.5 
Q 54.890625 34.8125 54.890625 23.390625 
Q 54.890625 11.625 47.5625 5.09375 
Q 40.234375 -1.421875 26.90625 -1.421875 
Q 22.3125 -1.421875 17.546875 -0.640625 
Q 12.796875 0.140625 7.71875 1.703125 
L 7.71875 11.625 
Q 12.109375 9.234375 16.796875 8.0625 
Q 21.484375 6.890625 26.703125 6.890625 
Q 35.15625 6.890625 40.078125 11.328125 
Q 45.015625 15.765625 45.015625 23.390625 
Q 45.015625 31 40.078125 35.4375 
Q 35.15625 39.890625 26.703125 39.890625 
Q 22.75 39.890625 18.8125 39.015625 
Q 14.890625 38.140625 10.796875 36.28125 
z
" id="DejaVuSans-53"/>
      </defs>
      <g transform="translate(356.660515 242.738437)scale(0.1 -0.1)">
       <use xlink:href="#DejaVuSans-53"/>
       <use x="63.623047" xlink:href="#DejaVuSans-48"/>
       <use x="127.246094" xlink:href="#DejaVuSans-48"/>
      </g>
     </g>
    </g>
   </g>
   <g id="matplotlib.axis_2">
    <g id="ytick_1">
     <g id="line2d_7">
      <defs>
       <path d="M 0 0 
L -3.5 0 
" id="md6b9ba78bf" style="stroke:#000000;stroke-width:0.8;"/>
      </defs>
      <g>
       <use style="stroke:#000000;stroke-width:0.8;" x="46.0125" xlink:href="#md6b9ba78bf" y="209.235289"/>
      </g>
     </g>
     <g id="text_7">
      <!-- 14000 -->
      <g transform="translate(7.2 213.034508)scale(0.1 -0.1)">
       <use xlink:href="#DejaVuSans-49"/>
       <use x="63.623047" xlink:href="#DejaVuSans-52"/>
       <use x="127.246094" xlink:href="#DejaVuSans-48"/>
       <use x="190.869141" xlink:href="#DejaVuSans-48"/>
       <use x="254.492188" xlink:href="#DejaVuSans-48"/>
      </g>
     </g>
    </g>
    <g id="ytick_2">
     <g id="line2d_8">
      <g>
       <use style="stroke:#000000;stroke-width:0.8;" x="46.0125" xlink:href="#md6b9ba78bf" y="179.771767"/>
      </g>
     </g>
     <g id="text_8">
      <!-- 16000 -->
      <defs>
       <path d="M 33.015625 40.375 
Q 26.375 40.375 22.484375 35.828125 
Q 18.609375 31.296875 18.609375 23.390625 
Q 18.609375 15.53125 22.484375 10.953125 
Q 26.375 6.390625 33.015625 6.390625 
Q 39.65625 6.390625 43.53125 10.953125 
Q 47.40625 15.53125 47.40625 23.390625 
Q 47.40625 31.296875 43.53125 35.828125 
Q 39.65625 40.375 33.015625 40.375 
z
M 52.59375 71.296875 
L 52.59375 62.3125 
Q 48.875 64.0625 45.09375 64.984375 
Q 41.3125 65.921875 37.59375 65.921875 
Q 27.828125 65.921875 22.671875 59.328125 
Q 17.53125 52.734375 16.796875 39.40625 
Q 19.671875 43.65625 24.015625 45.921875 
Q 28.375 48.1875 33.59375 48.1875 
Q 44.578125 48.1875 50.953125 41.515625 
Q 57.328125 34.859375 57.328125 23.390625 
Q 57.328125 12.15625 50.6875 5.359375 
Q 44.046875 -1.421875 33.015625 -1.421875 
Q 20.359375 -1.421875 13.671875 8.265625 
Q 6.984375 17.96875 6.984375 36.375 
Q 6.984375 53.65625 15.1875 63.9375 
Q 23.390625 74.21875 37.203125 74.21875 
Q 40.921875 74.21875 44.703125 73.484375 
Q 48.484375 72.75 52.59375 71.296875 
z
" id="DejaVuSans-54"/>
      </defs>
      <g transform="translate(7.2 183.570986)scale(0.1 -0.1)">
       <use xlink:href="#DejaVuSans-49"/>
       <use x="63.623047" xlink:href="#DejaVuSans-54"/>
       <use x="127.246094" xlink:href="#DejaVuSans-48"/>
       <use x="190.869141" xlink:href="#DejaVuSans-48"/>
       <use x="254.492188" xlink:href="#DejaVuSans-48"/>
      </g>
     </g>
    </g>
    <g id="ytick_3">
     <g id="line2d_9">
      <g>
       <use style="stroke:#000000;stroke-width:0.8;" x="46.0125" xlink:href="#md6b9ba78bf" y="150.308245"/>
      </g>
     </g>
     <g id="text_9">
      <!-- 18000 -->
      <defs>
       <path d="M 31.78125 34.625 
Q 24.75 34.625 20.71875 30.859375 
Q 16.703125 27.09375 16.703125 20.515625 
Q 16.703125 13.921875 20.71875 10.15625 
Q 24.75 6.390625 31.78125 6.390625 
Q 38.8125 6.390625 42.859375 10.171875 
Q 46.921875 13.96875 46.921875 20.515625 
Q 46.921875 27.09375 42.890625 30.859375 
Q 38.875 34.625 31.78125 34.625 
z
M 21.921875 38.8125 
Q 15.578125 40.375 12.03125 44.71875 
Q 8.5 49.078125 8.5 55.328125 
Q 8.5 64.0625 14.71875 69.140625 
Q 20.953125 74.21875 31.78125 74.21875 
Q 42.671875 74.21875 48.875 69.140625 
Q 55.078125 64.0625 55.078125 55.328125 
Q 55.078125 49.078125 51.53125 44.71875 
Q 48 40.375 41.703125 38.8125 
Q 48.828125 37.15625 52.796875 32.3125 
Q 56.78125 27.484375 56.78125 20.515625 
Q 56.78125 9.90625 50.3125 4.234375 
Q 43.84375 -1.421875 31.78125 -1.421875 
Q 19.734375 -1.421875 13.25 4.234375 
Q 6.78125 9.90625 6.78125 20.515625 
Q 6.78125 27.484375 10.78125 32.3125 
Q 14.796875 37.15625 21.921875 38.8125 
z
M 18.3125 54.390625 
Q 18.3125 48.734375 21.84375 45.5625 
Q 25.390625 42.390625 31.78125 42.390625 
Q 38.140625 42.390625 41.71875 45.5625 
Q 45.3125 48.734375 45.3125 54.390625 
Q 45.3125 60.0625 41.71875 63.234375 
Q 38.140625 66.40625 31.78125 66.40625 
Q 25.390625 66.40625 21.84375 63.234375 
Q 18.3125 60.0625 18.3125 54.390625 
z
" id="DejaVuSans-56"/>
      </defs>
      <g transform="translate(7.2 154.107464)scale(0.1 -0.1)">
       <use xlink:href="#DejaVuSans-49"/>
       <use x="63.623047" xlink:href="#DejaVuSans-56"/>
       <use x="127.246094" xlink:href="#DejaVuSans-48"/>
       <use x="190.869141" xlink:href="#DejaVuSans-48"/>
       <use x="254.492188" xlink:href="#DejaVuSans-48"/>
      </g>
     </g>
    </g>
    <g id="ytick_4">
     <g id="line2d_10">
      <g>
       <use style="stroke:#000000;stroke-width:0.8;" x="46.0125" xlink:href="#md6b9ba78bf" y="120.844723"/>
      </g>
     </g>
     <g id="text_10">
      <!-- 20000 -->
      <g transform="translate(7.2 124.643942)scale(0.1 -0.1)">
       <use xlink:href="#DejaVuSans-50"/>
       <use x="63.623047" xlink:href="#DejaVuSans-48"/>
       <use x="127.246094" xlink:href="#DejaVuSans-48"/>
       <use x="190.869141" xlink:href="#DejaVuSans-48"/>
       <use x="254.492188" xlink:href="#DejaVuSans-48"/>
      </g>
     </g>
    </g>
    <g id="ytick_5">
     <g id="line2d_11">
      <g>
       <use style="stroke:#000000;stroke-width:0.8;" x="46.0125" xlink:href="#md6b9ba78bf" y="91.381202"/>
      </g>
     </g>
     <g id="text_11">
      <!-- 22000 -->
      <g transform="translate(7.2 95.18042)scale(0.1 -0.1)">
       <use xlink:href="#DejaVuSans-50"/>
       <use x="63.623047" xlink:href="#DejaVuSans-50"/>
       <use x="127.246094" xlink:href="#DejaVuSans-48"/>
       <use x="190.869141" xlink:href="#DejaVuSans-48"/>
       <use x="254.492188" xlink:href="#DejaVuSans-48"/>
      </g>
     </g>
    </g>
    <g id="ytick_6">
     <g id="line2d_12">
      <g>
       <use style="stroke:#000000;stroke-width:0.8;" x="46.0125" xlink:href="#md6b9ba78bf" y="61.91768"/>
      </g>
     </g>
     <g id="text_12">
      <!-- 24000 -->
      <g transform="translate(7.2 65.716898)scale(0.1 -0.1)">
       <use xlink:href="#DejaVuSans-50"/>
       <use x="63.623047" xlink:href="#DejaVuSans-52"/>
       <use x="127.246094" xlink:href="#DejaVuSans-48"/>
       <use x="190.869141" xlink:href="#DejaVuSans-48"/>
       <use x="254.492188" xlink:href="#DejaVuSans-48"/>
      </g>
     </g>
    </g>
    <g id="ytick_7">
     <g id="line2d_13">
      <g>
       <use style="stroke:#000000;stroke-width:0.8;" x="46.0125" xlink:href="#md6b9ba78bf" y="32.454158"/>
      </g>
     </g>
     <g id="text_13">
      <!-- 26000 -->
      <g transform="translate(7.2 36.253377)scale(0.1 -0.1)">
       <use xlink:href="#DejaVuSans-50"/>
       <use x="63.623047" xlink:href="#DejaVuSans-54"/>
       <use x="127.246094" xlink:href="#DejaVuSans-48"/>
       <use x="190.869141" xlink:href="#DejaVuSans-48"/>
       <use x="254.492188" xlink:href="#DejaVuSans-48"/>
      </g>
     </g>
    </g>
   </g>
   <g id="line2d_14">
    <path clip-path="url(#pd3775c36a1)" d="M 61.230682 20.583636 
L 61.840629 24.343506 
L 62.450576 29.720031 
L 63.060523 41.535014 
L 63.67047 46.413562 
L 64.280418 49.501037 
L 64.890365 50.321331 
L 65.500312 52.825465 
L 66.720206 56.325179 
L 67.330153 56.659288 
L 67.940101 60.797963 
L 68.550048 62.885078 
L 69.159995 65.746192 
L 69.769942 71.30313 
L 70.379889 72.684328 
L 70.989836 73.431066 
L 71.599784 76.505209 
L 72.209731 76.803181 
L 72.819678 77.774476 
L 74.649519 83.046671 
L 75.259467 83.324306 
L 75.869414 84.888171 
L 76.479361 88.579884 
L 77.089308 89.151255 
L 77.699255 91.038231 
L 78.309202 93.640685 
L 78.91915 93.640685 
L 79.529097 95.485868 
L 80.139044 95.926348 
L 80.748991 96.575053 
L 81.358938 97.907305 
L 81.968885 98.171041 
L 82.578833 99.355776 
L 83.798727 102.881484 
L 84.408674 103.591283 
L 85.018621 104.092236 
L 85.628569 106.578258 
L 86.238516 109.605686 
L 86.848463 110.27397 
L 88.068357 113.458329 
L 88.678304 114.345814 
L 89.288252 116.303967 
L 90.508146 117.809178 
L 91.118093 118.669432 
L 91.72804 118.994517 
L 92.337987 120.520544 
L 92.947935 123.486099 
L 93.557882 123.636296 
L 95.387723 126.12536 
L 95.99767 127.250933 
L 97.827512 128.919651 
L 98.437459 130.584111 
L 99.047406 131.375317 
L 99.657353 131.979688 
L 100.267301 132.320087 
L 100.877248 133.050356 
L 101.487195 133.050356 
L 102.097142 134.014071 
L 102.707089 135.307026 
L 103.317036 137.390833 
L 104.536931 137.41766 
L 105.756825 139.955508 
L 106.366772 140.135161 
L 106.976719 141.844016 
L 107.586667 142.942704 
L 108.806561 144.179251 
L 109.416508 144.414767 
L 110.026455 145.114187 
L 110.636402 146.183492 
L 111.24635 146.843188 
L 111.856297 146.843188 
L 113.076191 147.863657 
L 113.686138 148.07259 
L 114.296085 148.07259 
L 114.906033 148.300299 
L 115.51598 149.172787 
L 116.125927 149.172787 
L 116.735874 149.946706 
L 117.345821 150.026736 
L 117.955768 151.432566 
L 118.565716 151.728041 
L 119.78561 151.959565 
L 120.395557 152.862151 
L 121.615451 153.11483 
L 122.225399 153.576383 
L 122.835346 153.768618 
L 124.05524 153.768618 
L 124.665187 154.612903 
L 125.885082 155.19547 
L 127.104976 155.303446 
L 127.714923 155.673715 
L 128.32487 156.26149 
L 128.934817 156.54059 
L 129.544765 156.54059 
L 130.154712 157.353312 
L 131.374606 158.373501 
L 131.984553 158.399753 
L 132.5945 158.679856 
L 133.204448 159.709642 
L 134.424342 159.709642 
L 135.034289 159.825773 
L 135.644236 161.142402 
L 136.254183 161.142402 
L 136.864131 161.711335 
L 137.474078 162.564407 
L 138.084025 162.728188 
L 138.693972 163.60511 
L 139.303919 163.920171 
L 141.133761 163.968322 
L 142.353655 164.859358 
L 142.963602 166.183117 
L 143.573549 166.564198 
L 144.183497 166.564198 
L 144.793444 166.87428 
L 145.403391 167.314899 
L 146.013338 167.434536 
L 146.623285 168.513188 
L 147.233232 168.678339 
L 147.84318 168.995447 
L 148.453127 168.995447 
L 149.063074 169.241011 
L 150.282968 169.342203 
L 150.892915 169.457582 
L 151.502863 169.792163 
L 153.332704 170.198583 
L 153.942651 170.819733 
L 154.552598 171.278207 
L 155.162546 171.450554 
L 157.602334 171.530047 
L 158.822229 171.729632 
L 159.432176 172.042889 
L 160.042123 172.582535 
L 160.65207 172.834478 
L 162.481912 172.834478 
L 163.091859 173.189852 
L 163.701806 173.340978 
L 164.311753 174.231697 
L 164.9217 174.231697 
L 165.531647 174.500161 
L 166.141595 174.984799 
L 169.19133 175.036412 
L 169.801278 175.833879 
L 171.021172 176.329389 
L 172.241066 177.295675 
L 173.460961 177.404719 
L 174.070908 177.611045 
L 174.680855 177.676373 
L 175.290802 177.945493 
L 175.900749 178.062522 
L 176.510696 178.062522 
L 177.730591 179.714689 
L 178.340538 179.729317 
L 178.950485 179.864327 
L 180.170379 179.892464 
L 180.780327 180.542798 
L 182.610168 180.642591 
L 183.220115 180.642591 
L 183.830062 180.939097 
L 185.659904 181.168699 
L 186.269851 181.552167 
L 186.879798 181.552167 
L 187.489745 182.168897 
L 188.099693 182.240265 
L 188.70964 182.745395 
L 189.319587 182.794061 
L 189.929534 182.990811 
L 190.539481 182.990811 
L 191.149428 183.326268 
L 191.759376 183.398093 
L 192.369323 183.897043 
L 194.199164 184.65953 
L 194.809111 184.65953 
L 195.419059 185.793706 
L 196.029006 185.945988 
L 196.638953 186.601227 
L 197.858847 187.069557 
L 198.468794 187.069557 
L 199.078742 187.832309 
L 199.688689 188.228159 
L 203.348372 188.324777 
L 203.958319 188.536281 
L 205.78816 188.5407 
L 206.398108 189.11834 
L 208.227949 189.132991 
L 209.447843 189.900825 
L 210.057791 189.900825 
L 210.667738 190.297419 
L 211.887632 190.594978 
L 212.497579 190.594978 
L 213.107526 190.836012 
L 216.157262 190.857307 
L 216.767209 191.127362 
L 217.377157 191.127362 
L 217.987104 191.614924 
L 218.597051 191.614924 
L 219.206998 192.157966 
L 219.816945 192.157966 
L 220.426892 192.53633 
L 221.03684 192.690365 
L 222.256734 192.690365 
L 222.866681 192.978378 
L 223.476628 192.978378 
L 224.086575 193.626642 
L 225.30647 194.24517 
L 225.916417 194.537544 
L 228.356206 194.603019 
L 228.966153 194.756237 
L 235.065624 194.826757 
L 235.675572 195.036722 
L 236.285519 195.377438 
L 237.505413 195.463066 
L 238.11536 195.729402 
L 240.555149 195.836148 
L 241.165096 195.913932 
L 241.775043 196.338383 
L 245.434726 196.399992 
L 246.044673 196.665178 
L 247.264568 196.665406 
L 247.874515 196.850931 
L 248.484462 196.850931 
L 249.094409 197.011043 
L 251.534198 197.10006 
L 252.144145 197.122577 
L 252.754092 197.455088 
L 253.973987 197.455088 
L 254.583934 197.583018 
L 255.193881 197.589684 
L 256.413775 197.725445 
L 258.243617 197.725445 
L 258.853564 197.930194 
L 259.463511 197.930194 
L 260.073458 198.437424 
L 261.293353 198.437424 
L 261.9033 198.954671 
L 263.123194 198.995934 
L 263.733141 199.155678 
L 264.343088 199.508401 
L 266.782877 199.508401 
L 267.392824 200.019909 
L 273.492296 200.108823 
L 274.102243 200.769653 
L 279.591768 200.823107 
L 280.201715 201.298516 
L 281.421609 201.48832 
L 283.251451 201.48832 
L 283.861398 201.628574 
L 286.911134 201.683899 
L 287.521081 202.233003 
L 288.740975 202.465772 
L 291.790711 202.486765 
L 293.010605 202.81342 
L 297.280235 202.888979 
L 299.110077 203.144545 
L 299.720024 203.144545 
L 300.329971 203.737005 
L 300.939918 203.935464 
L 302.76976 203.943007 
L 303.379707 204.088873 
L 308.869232 204.088873 
L 309.479179 204.371856 
L 314.358756 204.463922 
L 319.848281 204.530775 
L 321.068175 204.835221 
L 321.678122 205.326555 
L 331.437277 205.381644 
L 332.657171 205.478174 
L 335.706907 205.577444 
L 336.926801 205.979142 
L 338.756643 205.979142 
L 339.36659 206.126718 
L 340.586484 206.126718 
L 341.196431 206.386328 
L 352.175481 206.464281 
L 353.395375 206.787776 
L 354.615269 206.787776 
L 355.225216 207.11885 
L 359.494847 207.11885 
L 360.104794 207.26619 
L 363.15453 207.306349 
L 363.764477 207.74414 
L 365.594318 207.74414 
L 365.594318 207.74414 
" style="fill:none;stroke:#1f77b4;stroke-linecap:square;stroke-width:1.5;"/>
   </g>
   <g id="line2d_15">
    <path clip-path="url(#pd3775c36a1)" d="M 61.230682 37.948839 
L 61.840629 42.386215 
L 62.450576 42.912242 
L 63.67047 50.413677 
L 64.280418 56.342636 
L 64.890365 58.040612 
L 65.500312 61.072828 
L 66.110259 65.71211 
L 66.720206 65.957777 
L 67.940101 68.872934 
L 68.550048 69.839382 
L 69.159995 72.199808 
L 69.769942 75.323324 
L 70.379889 75.98783 
L 70.989836 78.249722 
L 71.599784 82.222156 
L 72.209731 82.930128 
L 72.819678 83.811544 
L 73.429625 86.028041 
L 74.039572 89.062002 
L 74.649519 90.570056 
L 75.259467 91.731729 
L 75.869414 93.941029 
L 76.479361 93.951209 
L 77.089308 95.89424 
L 77.699255 96.379541 
L 78.309202 97.16302 
L 78.91915 97.493586 
L 79.529097 98.893972 
L 80.139044 101.276496 
L 80.748991 101.852677 
L 81.358938 103.77705 
L 81.968885 104.057381 
L 82.578833 104.057381 
L 83.798727 107.218124 
L 84.408674 111.11399 
L 85.628569 114.15573 
L 86.238516 114.15573 
L 86.848463 115.029574 
L 87.45841 117.037042 
L 88.678304 117.881179 
L 89.288252 117.979801 
L 90.508146 121.078848 
L 91.118093 122.393834 
L 91.72804 123.046068 
L 92.337987 124.035041 
L 92.947935 127.250064 
L 93.557882 128.706865 
L 94.167829 128.706865 
L 94.777776 129.158438 
L 95.387723 130.812549 
L 95.99767 131.975865 
L 96.607618 132.65796 
L 97.217565 133.149883 
L 97.827512 134.583924 
L 98.437459 135.594884 
L 99.047406 136.029007 
L 99.657353 137.177812 
L 100.267301 137.177812 
L 100.877248 138.140238 
L 102.097142 138.48446 
L 102.707089 139.817471 
L 104.536931 142.704889 
L 105.146878 144.374351 
L 105.756825 145.325072 
L 106.366772 145.506575 
L 106.976719 145.977572 
L 107.586667 146.728567 
L 108.196614 146.745678 
L 108.806561 147.388756 
L 109.416508 148.963751 
L 110.026455 149.060907 
L 111.24635 151.601753 
L 112.466244 152.862791 
L 113.076191 154.777854 
L 113.686138 155.748891 
L 115.51598 157.185075 
L 116.125927 157.27748 
L 116.735874 158.009745 
L 117.345821 158.055155 
L 117.955768 158.456868 
L 118.565716 159.459438 
L 119.175663 161.993301 
L 119.78561 163.082126 
L 120.395557 163.245854 
L 121.005504 163.607858 
L 121.615451 163.660111 
L 122.225399 164.425883 
L 124.05524 164.50349 
L 124.665187 165.319306 
L 125.275134 165.319306 
L 125.885082 165.933215 
L 126.495029 166.92436 
L 127.104976 167.330125 
L 127.714923 168.285951 
L 128.32487 168.877276 
L 128.934817 169.833588 
L 130.154712 171.0338 
L 130.764659 171.200306 
L 131.374606 172.534627 
L 131.984553 172.779587 
L 132.5945 173.5663 
L 133.204448 173.652009 
L 133.814395 174.292333 
L 135.034289 174.355038 
L 135.644236 174.53909 
L 136.254183 174.965574 
L 137.474078 175.172821 
L 138.084025 176.014026 
L 139.913866 176.207034 
L 140.523814 176.565222 
L 141.743708 176.671085 
L 142.963602 176.787731 
L 143.573549 177.428047 
L 144.183497 177.517646 
L 144.793444 178.483629 
L 145.403391 178.483629 
L 146.013338 178.726173 
L 147.233232 178.726173 
L 147.84318 179.131392 
L 148.453127 179.249504 
L 149.063074 179.534799 
L 149.673021 179.570008 
L 151.502863 180.158144 
L 152.11281 180.347293 
L 154.552598 180.44506 
L 155.162546 181.727187 
L 155.772493 181.945939 
L 156.38244 182.501908 
L 156.992387 183.316008 
L 157.602334 183.316582 
L 158.212281 183.721993 
L 158.822229 183.721993 
L 159.432176 184.322239 
L 160.65207 184.449631 
L 161.871964 184.607048 
L 163.091859 185.329869 
L 163.701806 185.61445 
L 164.311753 186.097128 
L 165.531647 186.63648 
L 166.751542 186.63648 
L 167.361489 187.562607 
L 167.971436 187.91835 
L 169.801278 187.983125 
L 170.411225 188.611383 
L 171.021172 189.909907 
L 171.631119 190.346446 
L 173.460961 190.591361 
L 174.680855 190.683155 
L 175.290802 190.896198 
L 175.900749 191.412716 
L 176.510696 191.412716 
L 177.120644 191.869916 
L 177.730591 191.869916 
L 178.340538 192.340279 
L 180.170379 192.358753 
L 180.780327 192.637183 
L 182.000221 192.637183 
L 183.220115 192.994679 
L 183.830062 193.521118 
L 184.44001 193.867757 
L 185.049957 194.029732 
L 185.659904 194.4224 
L 186.269851 194.658985 
L 186.879798 194.658985 
L 188.70964 195.020731 
L 189.319587 195.663212 
L 189.929534 195.663212 
L 190.539481 195.81081 
L 191.149428 196.08787 
L 193.589217 196.411836 
L 194.809111 196.411836 
L 195.419059 196.741025 
L 196.029006 196.893719 
L 196.638953 196.893719 
L 197.2489 197.181696 
L 197.858847 197.337897 
L 199.688689 197.337897 
L 200.298636 197.483888 
L 202.128477 197.527553 
L 203.348372 197.615097 
L 203.958319 197.641636 
L 204.568266 197.984326 
L 205.178213 197.984326 
L 205.78816 198.110931 
L 206.398108 198.110931 
L 207.008055 198.876128 
L 209.447843 198.977836 
L 210.667738 199.006173 
L 211.887632 199.362534 
L 213.717474 199.362534 
L 214.327421 199.723256 
L 215.547315 199.723256 
L 216.157262 200.173112 
L 218.597051 200.256384 
L 220.426892 201.373773 
L 221.03684 201.487893 
L 225.30647 201.556476 
L 226.526364 202.099356 
L 227.136311 202.099356 
L 227.746258 202.251948 
L 228.966153 202.251948 
L 229.5761 202.488245 
L 230.795994 202.581682 
L 231.405941 202.581682 
L 232.015889 202.735083 
L 233.235783 202.735083 
L 233.84573 202.876317 
L 236.285519 202.89127 
L 236.895466 203.036584 
L 237.505413 203.392356 
L 238.11536 203.57609 
L 238.725307 203.57609 
L 239.335255 203.767714 
L 242.38499 203.915466 
L 242.994938 204.22951 
L 244.214832 204.272925 
L 244.824779 204.59119 
L 245.434726 204.749637 
L 247.264568 204.833571 
L 247.874515 205.006883 
L 248.484462 205.006883 
L 249.094409 205.179267 
L 249.704356 205.213525 
L 250.314304 205.732901 
L 252.754092 205.837555 
L 253.364039 206.000997 
L 253.973987 206.637497 
L 254.583934 206.788815 
L 257.023722 206.875666 
L 257.63367 207.099228 
L 258.243617 207.140153 
L 258.853564 207.367854 
L 260.683405 207.367854 
L 261.293353 207.643677 
L 266.782877 207.728141 
L 267.392824 207.952211 
L 268.002771 207.952211 
L 268.612719 208.124595 
L 269.832613 208.124595 
L 270.44256 208.314561 
L 274.102243 208.626241 
L 283.251451 208.701093 
L 283.861398 208.882691 
L 286.911134 208.960468 
L 287.521081 209.089275 
L 288.131028 209.089275 
L 288.740975 209.236725 
L 289.960869 209.335222 
L 291.180764 209.391394 
L 296.060341 209.459933 
L 296.670288 209.573258 
L 297.280235 209.573258 
L 297.890183 209.81628 
L 298.50013 209.81628 
L 299.110077 210.033964 
L 300.939918 210.07248 
L 305.819496 210.07248 
L 307.03939 210.218457 
L 308.259284 210.29093 
L 310.089126 210.29093 
L 310.699073 210.432834 
L 314.358756 210.432834 
L 314.968703 210.647579 
L 316.188598 210.723138 
L 318.628386 210.723138 
L 319.238333 210.924329 
L 322.288069 211.029124 
L 322.898016 211.224062 
L 325.947752 211.237468 
L 326.557699 211.453583 
L 330.217382 211.53938 
L 330.82733 211.846597 
L 332.047224 211.919754 
L 333.267118 212.200424 
L 335.706907 212.246122 
L 336.316854 212.381875 
L 336.926801 212.661418 
L 338.146696 212.742339 
L 342.416326 212.827305 
L 343.026273 213.166761 
L 346.076009 213.180167 
L 346.685956 213.66085 
L 347.90585 213.72511 
L 349.125745 213.800669 
L 354.615269 214.08013 
L 357.055058 214.404244 
L 358.884899 214.448086 
L 359.494847 214.638869 
L 365.594318 214.660193 
L 365.594318 214.660193 
" style="fill:none;stroke:#ff7f0e;stroke-linecap:square;stroke-width:1.5;"/>
   </g>
   <g id="line2d_16">
    <path clip-path="url(#pd3775c36a1)" d="M 61.230682 46.240228 
L 61.840629 51.522655 
L 63.060523 55.986511 
L 63.67047 58.083945 
L 64.890365 67.906398 
L 65.500312 68.525272 
L 66.110259 70.028287 
L 66.720206 72.37958 
L 67.330153 77.50856 
L 67.940101 78.410497 
L 68.550048 78.68179 
L 69.159995 80.072844 
L 69.769942 80.996334 
L 70.379889 84.245682 
L 70.989836 85.76829 
L 71.599784 89.533102 
L 72.819678 92.367751 
L 73.429625 93.788047 
L 74.039572 94.34205 
L 75.259467 96.527028 
L 75.869414 96.527028 
L 77.699255 97.438865 
L 78.309202 99.556452 
L 78.91915 99.973464 
L 79.529097 100.189682 
L 80.139044 102.10652 
L 80.748991 105.134685 
L 81.358938 105.493249 
L 81.968885 107.987218 
L 82.578833 109.435527 
L 83.798727 113.994963 
L 84.408674 116.035805 
L 85.018621 116.662332 
L 85.628569 116.965423 
L 86.238516 118.691117 
L 86.848463 119.203193 
L 88.068357 123.144278 
L 88.678304 125.151266 
L 89.898199 125.441961 
L 90.508146 126.663997 
L 91.72804 129.983424 
L 92.337987 129.983424 
L 92.947935 130.53325 
L 93.557882 132.74227 
L 94.167829 133.437985 
L 94.777776 134.709203 
L 95.387723 135.148225 
L 95.99767 136.955591 
L 96.607618 136.955591 
L 97.217565 137.155442 
L 97.827512 137.974078 
L 98.437459 140.279002 
L 99.047406 140.279002 
L 99.657353 141.056029 
L 100.877248 141.071225 
L 101.487195 142.283803 
L 102.097142 143.242686 
L 102.707089 143.242686 
L 103.317036 143.501737 
L 103.926984 143.52768 
L 104.536931 144.357417 
L 105.146878 144.845104 
L 105.756825 145.556972 
L 106.976719 146.128859 
L 107.586667 147.491532 
L 108.806561 149.39028 
L 109.416508 151.728372 
L 110.026455 152.039058 
L 110.636402 153.905682 
L 111.24635 153.905682 
L 112.466244 154.773339 
L 113.686138 156.547271 
L 115.51598 158.321653 
L 116.125927 159.994488 
L 116.735874 160.189066 
L 117.345821 161.120768 
L 117.955768 161.47643 
L 119.175663 161.47643 
L 119.78561 161.792065 
L 120.395557 162.466662 
L 121.005504 162.974532 
L 122.835346 163.639487 
L 123.445293 163.639487 
L 124.05524 164.251864 
L 124.665187 164.281836 
L 125.275134 164.605537 
L 126.495029 165.587026 
L 127.714923 167.358292 
L 128.934817 168.006489 
L 130.154712 169.220129 
L 130.764659 170.728167 
L 131.374606 171.741617 
L 131.984553 172.362148 
L 133.204448 172.362148 
L 135.034289 173.921682 
L 136.254183 174.287567 
L 136.864131 174.729932 
L 137.474078 175.368348 
L 138.693972 175.935675 
L 139.303919 176.450514 
L 139.913866 177.303733 
L 141.133761 177.404881 
L 141.743708 177.932934 
L 142.353655 178.047215 
L 142.963602 178.325572 
L 143.573549 178.441246 
L 144.793444 180.163882 
L 146.013338 180.163882 
L 146.623285 180.564513 
L 147.233232 181.371319 
L 150.282968 181.812602 
L 150.892915 182.407912 
L 152.722757 182.407912 
L 153.332704 182.596118 
L 153.942651 183.016283 
L 154.552598 183.016283 
L 155.162546 184.47869 
L 155.772493 185.06452 
L 156.38244 186.501729 
L 156.992387 186.69006 
L 157.602334 187.321603 
L 159.432176 187.577796 
L 160.65207 188.185002 
L 161.262017 188.185002 
L 161.871964 188.849478 
L 162.481912 188.995912 
L 163.091859 189.275624 
L 163.701806 189.275624 
L 164.311753 189.7712 
L 164.9217 190.103099 
L 165.531647 190.622608 
L 166.141595 191.339993 
L 166.751542 192.288011 
L 167.971436 193.328795 
L 168.581383 193.328795 
L 169.19133 193.563885 
L 169.801278 193.590866 
L 170.411225 194.491787 
L 171.021172 194.491787 
L 171.631119 194.972764 
L 172.241066 195.819973 
L 172.851013 195.819973 
L 173.460961 196.062244 
L 174.070908 196.754659 
L 175.290802 196.823176 
L 178.340538 196.893498 
L 179.560432 197.10045 
L 180.170379 197.10238 
L 180.780327 197.655322 
L 184.44001 197.765604 
L 185.049957 198.404469 
L 186.269851 198.837619 
L 186.879798 199.634438 
L 187.489745 199.634438 
L 188.099693 199.982631 
L 189.929534 199.982631 
L 190.539481 200.565331 
L 192.369323 200.682912 
L 192.97927 200.97483 
L 194.809111 201.381949 
L 195.419059 201.381949 
L 196.638953 201.705179 
L 197.2489 201.843849 
L 197.858847 202.267078 
L 198.468794 202.306146 
L 199.078742 202.596406 
L 199.688689 203.206183 
L 200.298636 203.258186 
L 200.908583 203.723283 
L 202.128477 203.729824 
L 202.738425 204.065222 
L 204.568266 204.065222 
L 205.178213 204.31231 
L 207.008055 204.31231 
L 207.618002 204.482992 
L 208.227949 204.482992 
L 208.837896 204.599056 
L 210.667738 204.705177 
L 211.277685 204.84996 
L 211.887632 204.84996 
L 212.497579 205.395419 
L 213.717474 206.11958 
L 214.327421 206.11958 
L 214.937368 206.378373 
L 216.157262 206.655978 
L 217.377157 207.596145 
L 217.987104 207.789882 
L 218.597051 208.125656 
L 220.426892 208.125656 
L 221.03684 208.275809 
L 222.256734 208.289488 
L 223.476628 208.579365 
L 225.30647 208.668374 
L 228.356206 208.855165 
L 228.966153 209.03012 
L 230.795994 209.117737 
L 231.405941 209.384308 
L 234.455677 209.475372 
L 243.604885 209.777779 
L 244.214832 210.322773 
L 244.824779 210.322773 
L 245.434726 210.444965 
L 246.654621 210.482752 
L 247.874515 210.601048 
L 249.704356 210.696238 
L 250.314304 210.884937 
L 254.583934 210.912264 
L 255.193881 211.084132 
L 258.853564 211.12158 
L 260.073458 211.380557 
L 260.683405 211.380557 
L 261.293353 211.552816 
L 267.392824 211.633921 
L 268.612719 211.831541 
L 269.222666 211.831541 
L 269.832613 212.146145 
L 274.102243 212.546156 
L 275.932085 212.640322 
L 276.542032 212.919054 
L 279.591768 212.919054 
L 280.201715 213.064744 
L 282.031556 213.137128 
L 282.641503 213.275128 
L 285.081292 213.363018 
L 285.691239 213.584355 
L 286.911134 213.637905 
L 287.521081 213.970777 
L 289.350922 213.970777 
L 289.960869 214.464342 
L 290.570817 214.672841 
L 292.400658 214.770741 
L 293.010605 214.98223 
L 295.450394 215.059166 
L 297.280235 215.205725 
L 297.890183 215.205725 
L 298.50013 215.327704 
L 303.379707 215.411705 
L 303.989654 215.556319 
L 309.479179 215.660414 
L 311.918967 215.73559 
L 312.528915 216.142945 
L 319.848281 216.247069 
L 320.458228 216.36485 
L 321.678122 216.418761 
L 322.288069 216.615231 
L 324.727858 216.683299 
L 325.947752 216.778275 
L 328.997488 216.829666 
L 329.607435 216.967106 
L 330.217382 217.234657 
L 335.09696 217.295669 
L 336.316854 217.369003 
L 343.026273 217.453969 
L 344.246167 217.525528 
L 347.90585 217.581119 
L 349.125745 217.63693 
L 355.835164 217.741724 
L 362.544582 218.165911 
L 365.594318 218.256364 
L 365.594318 218.256364 
" style="fill:none;stroke:#2ca02c;stroke-linecap:square;stroke-width:1.5;"/>
   </g>
   <g id="patch_3">
    <path d="M 46.0125 228.14 
L 46.0125 10.7 
" style="fill:none;stroke:#000000;stroke-linecap:square;stroke-linejoin:miter;stroke-width:0.8;"/>
   </g>
   <g id="patch_4">
    <path d="M 380.8125 228.14 
L 380.8125 10.7 
" style="fill:none;stroke:#000000;stroke-linecap:square;stroke-linejoin:miter;stroke-width:0.8;"/>
   </g>
   <g id="patch_5">
    <path d="M 46.0125 228.14 
L 380.8125 228.14 
" style="fill:none;stroke:#000000;stroke-linecap:square;stroke-linejoin:miter;stroke-width:0.8;"/>
   </g>
   <g id="patch_6">
    <path d="M 46.0125 10.7 
L 380.8125 10.7 
" style="fill:none;stroke:#000000;stroke-linecap:square;stroke-linejoin:miter;stroke-width:0.8;"/>
   </g>
   <g id="legend_1">
    <g id="patch_7">
     <path d="M 272.973437 63.56875 
L 373.8125 63.56875 
Q 375.8125 63.56875 375.8125 61.56875 
L 375.8125 17.7 
Q 375.8125 15.7 373.8125 15.7 
L 272.973437 15.7 
Q 270.973437 15.7 270.973437 17.7 
L 270.973437 61.56875 
Q 270.973437 63.56875 272.973437 63.56875 
z
" style="fill:#ffffff;opacity:0.8;stroke:#cccccc;stroke-linejoin:miter;"/>
    </g>
    <g id="line2d_17">
     <path d="M 274.973437 23.798437 
L 294.973437 23.798437 
" style="fill:none;stroke:#1f77b4;stroke-linecap:square;stroke-width:1.5;"/>
    </g>
    <g id="line2d_18"/>
    <g id="text_14">
     <!-- pop_size: 20 -->
     <defs>
      <path d="M 18.109375 8.203125 
L 18.109375 -20.796875 
L 9.078125 -20.796875 
L 9.078125 54.6875 
L 18.109375 54.6875 
L 18.109375 46.390625 
Q 20.953125 51.265625 25.265625 53.625 
Q 29.59375 56 35.59375 56 
Q 45.5625 56 51.78125 48.09375 
Q 58.015625 40.1875 58.015625 27.296875 
Q 58.015625 14.40625 51.78125 6.484375 
Q 45.5625 -1.421875 35.59375 -1.421875 
Q 29.59375 -1.421875 25.265625 0.953125 
Q 20.953125 3.328125 18.109375 8.203125 
z
M 48.6875 27.296875 
Q 48.6875 37.203125 44.609375 42.84375 
Q 40.53125 48.484375 33.40625 48.484375 
Q 26.265625 48.484375 22.1875 42.84375 
Q 18.109375 37.203125 18.109375 27.296875 
Q 18.109375 17.390625 22.1875 11.75 
Q 26.265625 6.109375 33.40625 6.109375 
Q 40.53125 6.109375 44.609375 11.75 
Q 48.6875 17.390625 48.6875 27.296875 
z
" id="DejaVuSans-112"/>
      <path d="M 30.609375 48.390625 
Q 23.390625 48.390625 19.1875 42.75 
Q 14.984375 37.109375 14.984375 27.296875 
Q 14.984375 17.484375 19.15625 11.84375 
Q 23.34375 6.203125 30.609375 6.203125 
Q 37.796875 6.203125 41.984375 11.859375 
Q 46.1875 17.53125 46.1875 27.296875 
Q 46.1875 37.015625 41.984375 42.703125 
Q 37.796875 48.390625 30.609375 48.390625 
z
M 30.609375 56 
Q 42.328125 56 49.015625 48.375 
Q 55.71875 40.765625 55.71875 27.296875 
Q 55.71875 13.875 49.015625 6.21875 
Q 42.328125 -1.421875 30.609375 -1.421875 
Q 18.84375 -1.421875 12.171875 6.21875 
Q 5.515625 13.875 5.515625 27.296875 
Q 5.515625 40.765625 12.171875 48.375 
Q 18.84375 56 30.609375 56 
z
" id="DejaVuSans-111"/>
      <path d="M 50.984375 -16.609375 
L 50.984375 -23.578125 
L -0.984375 -23.578125 
L -0.984375 -16.609375 
z
" id="DejaVuSans-95"/>
      <path d="M 44.28125 53.078125 
L 44.28125 44.578125 
Q 40.484375 46.53125 36.375 47.5 
Q 32.28125 48.484375 27.875 48.484375 
Q 21.1875 48.484375 17.84375 46.4375 
Q 14.5 44.390625 14.5 40.28125 
Q 14.5 37.15625 16.890625 35.375 
Q 19.28125 33.59375 26.515625 31.984375 
L 29.59375 31.296875 
Q 39.15625 29.25 43.1875 25.515625 
Q 47.21875 21.78125 47.21875 15.09375 
Q 47.21875 7.46875 41.1875 3.015625 
Q 35.15625 -1.421875 24.609375 -1.421875 
Q 20.21875 -1.421875 15.453125 -0.5625 
Q 10.6875 0.296875 5.421875 2 
L 5.421875 11.28125 
Q 10.40625 8.6875 15.234375 7.390625 
Q 20.0625 6.109375 24.8125 6.109375 
Q 31.15625 6.109375 34.5625 8.28125 
Q 37.984375 10.453125 37.984375 14.40625 
Q 37.984375 18.0625 35.515625 20.015625 
Q 33.0625 21.96875 24.703125 23.78125 
L 21.578125 24.515625 
Q 13.234375 26.265625 9.515625 29.90625 
Q 5.8125 33.546875 5.8125 39.890625 
Q 5.8125 47.609375 11.28125 51.796875 
Q 16.75 56 26.8125 56 
Q 31.78125 56 36.171875 55.265625 
Q 40.578125 54.546875 44.28125 53.078125 
z
" id="DejaVuSans-115"/>
      <path d="M 9.421875 54.6875 
L 18.40625 54.6875 
L 18.40625 0 
L 9.421875 0 
z
M 9.421875 75.984375 
L 18.40625 75.984375 
L 18.40625 64.59375 
L 9.421875 64.59375 
z
" id="DejaVuSans-105"/>
      <path d="M 5.515625 54.6875 
L 48.1875 54.6875 
L 48.1875 46.484375 
L 14.40625 7.171875 
L 48.1875 7.171875 
L 48.1875 0 
L 4.296875 0 
L 4.296875 8.203125 
L 38.09375 47.515625 
L 5.515625 47.515625 
z
" id="DejaVuSans-122"/>
      <path d="M 56.203125 29.59375 
L 56.203125 25.203125 
L 14.890625 25.203125 
Q 15.484375 15.921875 20.484375 11.0625 
Q 25.484375 6.203125 34.421875 6.203125 
Q 39.59375 6.203125 44.453125 7.46875 
Q 49.3125 8.734375 54.109375 11.28125 
L 54.109375 2.78125 
Q 49.265625 0.734375 44.1875 -0.34375 
Q 39.109375 -1.421875 33.890625 -1.421875 
Q 20.796875 -1.421875 13.15625 6.1875 
Q 5.515625 13.8125 5.515625 26.8125 
Q 5.515625 40.234375 12.765625 48.109375 
Q 20.015625 56 32.328125 56 
Q 43.359375 56 49.78125 48.890625 
Q 56.203125 41.796875 56.203125 29.59375 
z
M 47.21875 32.234375 
Q 47.125 39.59375 43.09375 43.984375 
Q 39.0625 48.390625 32.421875 48.390625 
Q 24.90625 48.390625 20.390625 44.140625 
Q 15.875 39.890625 15.1875 32.171875 
z
" id="DejaVuSans-101"/>
      <path d="M 11.71875 12.40625 
L 22.015625 12.40625 
L 22.015625 0 
L 11.71875 0 
z
M 11.71875 51.703125 
L 22.015625 51.703125 
L 22.015625 39.3125 
L 11.71875 39.3125 
z
" id="DejaVuSans-58"/>
      <path id="DejaVuSans-32"/>
     </defs>
     <g transform="translate(302.973437 27.298437)scale(0.1 -0.1)">
      <use xlink:href="#DejaVuSans-112"/>
      <use x="63.476562" xlink:href="#DejaVuSans-111"/>
      <use x="124.658203" xlink:href="#DejaVuSans-112"/>
      <use x="188.134766" xlink:href="#DejaVuSans-95"/>
      <use x="238.134766" xlink:href="#DejaVuSans-115"/>
      <use x="290.234375" xlink:href="#DejaVuSans-105"/>
      <use x="318.017578" xlink:href="#DejaVuSans-122"/>
      <use x="370.507812" xlink:href="#DejaVuSans-101"/>
      <use x="432.03125" xlink:href="#DejaVuSans-58"/>
      <use x="465.722656" xlink:href="#DejaVuSans-32"/>
      <use x="497.509766" xlink:href="#DejaVuSans-50"/>
      <use x="561.132812" xlink:href="#DejaVuSans-48"/>
     </g>
    </g>
    <g id="line2d_19">
     <path d="M 274.973437 38.754687 
L 294.973437 38.754687 
" style="fill:none;stroke:#ff7f0e;stroke-linecap:square;stroke-width:1.5;"/>
    </g>
    <g id="line2d_20"/>
    <g id="text_15">
     <!-- pop_size: 50 -->
     <g transform="translate(302.973437 42.254687)scale(0.1 -0.1)">
      <use xlink:href="#DejaVuSans-112"/>
      <use x="63.476562" xlink:href="#DejaVuSans-111"/>
      <use x="124.658203" xlink:href="#DejaVuSans-112"/>
      <use x="188.134766" xlink:href="#DejaVuSans-95"/>
      <use x="238.134766" xlink:href="#DejaVuSans-115"/>
      <use x="290.234375" xlink:href="#DejaVuSans-105"/>
      <use x="318.017578" xlink:href="#DejaVuSans-122"/>
      <use x="370.507812" xlink:href="#DejaVuSans-101"/>
      <use x="432.03125" xlink:href="#DejaVuSans-58"/>
      <use x="465.722656" xlink:href="#DejaVuSans-32"/>
      <use x="497.509766" xlink:href="#DejaVuSans-53"/>
      <use x="561.132812" xlink:href="#DejaVuSans-48"/>
     </g>
    </g>
    <g id="line2d_21">
     <path d="M 274.973437 53.710937 
L 294.973437 53.710937 
" style="fill:none;stroke:#2ca02c;stroke-linecap:square;stroke-width:1.5;"/>
    </g>
    <g id="line2d_22"/>
    <g id="text_16">
     <!-- pop_size: 100 -->
     <g transform="translate(302.973437 57.210937)scale(0.1 -0.1)">
      <use xlink:href="#DejaVuSans-112"/>
      <use x="63.476562" xlink:href="#DejaVuSans-111"/>
      <use x="124.658203" xlink:href="#DejaVuSans-112"/>
      <use x="188.134766" xlink:href="#DejaVuSans-95"/>
      <use x="238.134766" xlink:href="#DejaVuSans-115"/>
      <use x="290.234375" xlink:href="#DejaVuSans-105"/>
      <use x="318.017578" xlink:href="#DejaVuSans-122"/>
      <use x="370.507812" xlink:href="#DejaVuSans-101"/>
      <use x="432.03125" xlink:href="#DejaVuSans-58"/>
      <use x="465.722656" xlink:href="#DejaVuSans-32"/>
      <use x="497.509766" xlink:href="#DejaVuSans-49"/>
      <use x="561.132812" xlink:href="#DejaVuSans-48"/>
      <use x="624.755859" xlink:href="#DejaVuSans-48"/>
     </g>
    </g>
   </g>
  </g>
 </g>
 <defs>
  <clipPath id="pd3775c36a1">
   <rect height="217.44" width="334.8" x="46.0125" y="10.7"/>
  </clipPath>
 </defs>
</svg>
